<svg xmlns="http://www.w3.org/2000/svg" viewBox="0 0 1154.43 615.34"><g id="logo-icon"><path d="M893.59,401v-9.71c7.92,0,15.71-.34,23.44.1,7.44.42,12.35,6,12.56,13.42.15,5,.19,10,0,14.94-.31,8.16-5.92,13.53-14,13.61q-9,.07-18,0c-8.25-.09-14-5.59-14.09-13.46-.15-8.36,5.13-14.11,13.5-14.39,5.61-.19,11.24-.06,16.86-.05a16.74,16.74,0,0,1,1.69.19v9.45H901c-1.15,0-2.3,0-3.45,0-2.74.09-4.39,1.58-4.45,4.25s1.65,4.19,4.38,4.22c6,0,12,0,18,0,3,0,4.35-1.71,4.35-4.62q0-6.7,0-13.41c0-3.22-1.69-4.59-4.81-4.57C908,401,901,401,893.59,401Z" transform="translate(-2.56 -4.44)" style="fill:#060606"/><path d="M1025.87,433.35c-2.94,0-5.88,0-8.82,0-8.73-.11-14.4-5.71-14.51-14.36q-.09-6.71,0-13.42c.11-8.46,5.66-14.13,14.18-14.33q9.39-.21,18.79,0c7.87.2,13.4,5.69,13.71,13.61.19,5,.15,10,0,14.95-.21,7.64-5.7,13.16-13.39,13.51-3.32.15-6.65,0-10,0Zm0-10.09c2.68,0,5.36-.08,8,0,3.48.12,5.26-1.38,5.22-4.95,0-4.08,0-8.15,0-12.23,0-3.13-1.46-4.74-4.64-4.73H1017.3c-3.16,0-4.67,1.59-4.66,4.73,0,4.07,0,8.15,0,12.23,0,3.29,1.49,5,4.86,4.94C1020.3,423.23,1023.1,423.26,1025.91,423.26Z" transform="translate(-2.56 -4.44)" style="fill:#040404"/><path d="M829.41,433.34c-3.19,0-6.39.1-9.58,0-7.84-.3-13.4-5.9-13.58-13.73-.11-4.72-.08-9.45,0-14.18.12-8.11,5.45-13.83,13.56-14.14,6.64-.25,13.3-.23,19.93,0,7.58.27,12.93,5.93,13.19,13.72.16,4.85.12,9.71,0,14.57-.18,7.85-5.69,13.44-13.56,13.75C836.06,433.45,832.73,433.34,829.41,433.34Zm.14-32c-2.8,0-5.61,0-8.41,0-3.1,0-4.8,1.39-4.8,4.58,0,4.21,0,8.41,0,12.62,0,3.12,1.54,4.71,4.7,4.7h17.21c3,0,4.54-1.45,4.57-4.41,0-4.33,0-8.67,0-13,0-3-1.51-4.47-4.48-4.48Z" transform="translate(-2.56 -4.44)" style="fill:#040404"/><path d="M758,433.35V423.24h22.11c1.66,0,3.32,0,5,0,2.48-.09,4.22-1.14,4.27-3.86s-1.5-4.24-4.26-4.27c-5.49-.06-11,.11-16.47-.11a11.77,11.77,0,0,1-9.87-17.52,11,11,0,0,1,9.58-6.1c8.64-.29,17.29-.09,26.12-.09v10.11H774.14a12.24,12.24,0,0,0-3.43.07,13.64,13.64,0,0,0-3.06,1.88c1,.54,1.92,1.51,2.91,1.54,4.59.17,9.19.05,13.79.08,9.38.06,15.16,5.61,15.11,14.46-.06,8.52-5.93,13.91-15.25,13.93C775.55,433.36,766.9,433.35,758,433.35Z" transform="translate(-2.56 -4.44)" style="fill:#040404"/><path d="M1068.05,401.38v31.81H1057.8v-4.47c0-10.34,0-20.68,0-31,0-4.69,1.79-6.46,6.48-6.49,7,0,14-.09,21.07,0,11.68.16,19.09,7.64,19.15,19.26,0,7.28,0,14.56,0,21.83a3.62,3.62,0,0,1-.27.86h-9.79q0-10.44,0-20.9c0-8-2.89-10.86-10.8-10.88Z" transform="translate(-2.56 -4.44)" style="fill:#040404"/><path d="M781.45,191.83v8.63H745.76v13.6c0,4.34,0,8.68,0,13,0,4.15.83,5,5.31,5,8.82.07,17.63,0,26.45,0h3.87v8.77h-8c-7.92,0-15.85.08-23.77,0s-12.72-4.93-12.78-12.65c-.07-10.22,0-20.44,0-30.66,0-4.42,1.33-5.72,5.69-5.73C755.42,191.82,768.29,191.83,781.45,191.83Z" transform="translate(-2.56 -4.44)" style="fill:#030303"/><path d="M852.43,216.58v8.23c-4.89,0-9.68.05-14.48,0-2.87,0-5.33.52-5.25,4,.08,3.21,2.52,3.73,5.17,3.71,4.47,0,9-.1,13.41,0,3.6.1,5.17-1.61,5.18-5.05s0-6.89,0-10.34c0-3.27-1.52-4.84-5-4.75-6,.15-12,0-18.27,0v-8.19c7.3,0,14.81-.45,22.23.15,5.37.43,9,5.1,9.28,10.6a133.06,133.06,0,0,1,0,14.54c-.41,6.87-5.18,11.28-12,11.39-5.36.09-10.72.08-16.09,0-7.47-.12-12.45-5-12.42-12.14,0-7.46,4.95-12.34,12.55-12.38,4.86,0,9.71,0,14.56,0A9,9,0,0,1,852.43,216.58Z" transform="translate(-2.56 -4.44)" style="fill:#040404"/><path d="M1041.78,232.46v8.43c-5.67,0-11.15.19-16.62,0-6.77-.3-11.33-5.14-11.48-11.91-.09-4.34-.12-8.69,0-13,.22-7.26,5-11.87,12.18-11.94,5.36-.06,10.72-.07,16.09,0,7,.1,11.9,4.54,12.27,11,.42,7.35-3.92,12.82-11.19,13.34-5.55.4-11.16.08-16.92.08v-8.38c4.9,0,9.61,0,14.32,0,2.82,0,5.36-.57,5.35-4s-2.73-3.73-5.47-3.7c-4.47.05-8.94.13-13.4,0-3.5-.12-4.89,1.55-4.89,4.81,0,3.45.05,6.9,0,10.34-.06,3.6,1.74,5,5.21,5C1032,232.4,1036.67,232.46,1041.78,232.46Z" transform="translate(-2.56 -4.44)" style="fill:#050505"/><path d="M1128.84,228.49v-8.43h12.66A28.34,28.34,0,0,0,1145,220c2.37-.29,4.07-1.81,3.48-4.06-.37-1.39-2.32-3.25-3.67-3.34-5.34-.39-10.71-.15-16.08-.17-2.6,0-3.75,1.59-3.83,3.85-.16,4.08-.14,8.17,0,12.25.09,2.83,1.92,4,4.61,4,5,0,9.94,0,15.09,0v8.39c-5.81,0-11.53.3-17.22-.07-6.42-.43-10.7-5.27-10.87-11.68-.11-4.34-.11-8.69,0-13,.2-7.47,4.93-12.06,12.4-12.12,5.24,0,10.47-.06,15.71,0,7.42.09,12.31,4.71,12.44,11.64.14,7.32-4.42,12.46-11.79,12.83C1139.86,228.71,1134.5,228.49,1128.84,228.49Z" transform="translate(-2.56 -4.44)" style="fill:#050505"/><path d="M976.24,401.53H958.91v31.63H948.57V401.4h-13V391.33h12.85V377.66h10.29V391h17.48Z" transform="translate(-2.56 -4.44)" style="fill:#020202"/><path d="M904.78,240.67c0-6.27,0-12.38,0-18.49,0-6.85-2.66-9.47-9.51-9.5-4.46,0-8.92,0-13.76,0v28h-8.93c0-10.92-.05-21.76,0-32.59,0-2.76,1.8-4.14,4.5-4.15,7.28,0,14.57-.24,21.84.11,8.27.41,14.25,6.6,14.56,14.94.26,7.13.05,14.27.05,21.64Z" transform="translate(-2.56 -4.44)" style="fill:#020202"/><path d="M957.36,204v8.72H938c-8.19,0-8.19,0-8.19,8.21v5.36c0,5.19.64,5.84,6,5.87,6.12,0,12.25,0,18.37,0,1,0,2,.11,3.11.18v8.39c-8.74,0-17.53.43-26.24-.15-6.14-.41-9.94-5.34-10.13-11.51-.13-4.33-.15-8.67,0-13,.26-7.44,5-12,12.49-12.06C941.28,203.92,949.16,204,957.36,204Z" transform="translate(-2.56 -4.44)" style="fill:#030303"/><path d="M1074.89,212.71V204.1h11.46V192h9V203.8h15.48v8.8h-15.21v28.07h-9.09v-28Z" transform="translate(-2.56 -4.44)" style="fill:#020202"/><path d="M798.22,212.63H786.64V204H798V192.1h9.07v11.79h15.44v8.67H807.28v28.15h-9.06Z" transform="translate(-2.56 -4.44)" style="fill:#020202"/><path d="M879.9,423.44V433c-9.42,2.07-19.15-3.38-18.66-15.63.52-13.38.12-26.79.12-40.19v-3.51h10.08v42.44c0,6.38.56,7,6.89,7.17C878.81,423.27,879.29,423.36,879.9,423.44Z" transform="translate(-2.56 -4.44)" style="fill:#020202"/><path d="M747.66,433.26h-9.57v-55.6h9.57Z" transform="translate(-2.56 -4.44)" style="fill:#010101"/><path d="M977.37,212.68v-8.49c6.29,0,12.64-.44,18.91.14,5.32.49,9.28,5.32,9.39,10.56.17,8.54,0,17.08,0,25.81H997c0-7.48,0-14.85,0-22.22,0-4.95-.86-5.79-5.78-5.8C986.65,212.67,982.09,212.68,977.37,212.68Z" transform="translate(-2.56 -4.44)" style="fill:#020202"/><path d="M993.63,433.2h-9.9V391.34h9.9Z" transform="translate(-2.56 -4.44)" style="fill:#0f0f0f"/><path d="M964.89,240.69v-52.3h8.44v52.3Z" transform="translate(-2.56 -4.44)" style="fill:#020202"/><path d="M665.15,409.82v-8.73h36.34v8.73Z" transform="translate(-2.56 -4.44)" style="fill:#0c0c0c"/><path d="M1060.88,204.11h8.26v36.53h-8.26Z" transform="translate(-2.56 -4.44)" style="fill:#010101"/><path d="M749.59,211.83h27.55v8.79H749.59Z" transform="translate(-2.56 -4.44)" style="fill:#060606"/><path d="M705,212.71v7.4H673.14v-7.4Z" transform="translate(-2.56 -4.44)" style="fill:#030303"/><path d="M1134.24,194l16.57-9.59,3.79,8.29-17.84,6.41Z" transform="translate(-2.56 -4.44)" style="fill:#090909"/><path d="M1051.86,192.7l-17.92,6.38-2.42-5.1,16.54-9.61Z" transform="translate(-2.56 -4.44)" style="fill:#090909"/><path d="M776.42,172.49c1.33,2.93,2.47,5.47,3.75,8.3l-17.84,6.41-2.47-5.1Z" transform="translate(-2.56 -4.44)" style="fill:#090909"/><path d="M983.73,382.47v-8.7h9.9v8.7Z" transform="translate(-2.56 -4.44)" style="fill:#0f0f0f"/><path d="M1060.79,196.12v-7.81h8.29v7.81Z" transform="translate(-2.56 -4.44)" style="fill:#0c0c0c"/><path d="M310.66,588.13c-154.11-2-275.43-120.59-275.37-275.7C35.35,155.85,157.81,37,310.9,37.1c154.51.1,275.29,121.28,275.28,275.38C586.16,466.06,465.55,586.26,310.66,588.13ZM103,451.83c1.84.73,2.87,1.16,3.92,1.55Q207,490.9,307.19,528.31a81.16,81.16,0,0,0,16.5,4.25c13.64,2,27.07,1.05,38.28-7.9,8.24-6.57,16.85-13.29,23.14-21.58q74-97.51,147-195.74a8.88,8.88,0,0,0,1.74-5.24c-.23-6.11-.8-12.22-1.39-18.31-2-21-15.42-33.37-33.38-40.66-16.3-6.63-33.49-6-50.21,0a10.43,10.43,0,0,0-4,2.62c-7.42,8.1-14.72,16.31-22.07,24.47-6,6.71-12.11,13.39-18.3,20.23-3.28-2.69-6.24-5.1-9.19-7.53-2.64-2.18-5.27-2.16-7.92,0L382.24,287c-12-7.64-23.73-15.38-35.77-22.58-4.57-2.73-7.71-5.52-6.61-11.24,0-.17-.26-.39-.59-.86h-9c-.16-.7-.31-1.17-.37-1.65q-3-24.12-6-48.24c-.29-2.38-1.38-5.48-.33-7.07,3.58-5.38.45-8-3.35-10.68a21.74,21.74,0,0,0-2-1.73c-7-3.76-7.81-9.61-5.7-16.49a3.26,3.26,0,0,1,.27-.52c2.85.95,5.84,1.7,8.61,2.93,3.1,1.37,4.89.67,6.95-2.1,3.06-4.12,4.7-10.61,12.25-8.57.64-3.95,1.16-7.47,1.81-11,.39-2.1.31-4.89,1.61-6.09,3.83-3.5,7.41-7.87,13.75-6.78,2.81.49,5.79.08,9,.08-1.66-6.92-3.25-13.35-4.7-19.82a9.21,9.21,0,0,1,.1-4c.92-3.84,2.21-7.59,3-11.45,2-9.22-.95-14.89-10-17.77-15.76-5-31.85-7-48.37-4.29-4.58.74-7.31,3.33-9.09,7.21a21.3,21.3,0,0,0-2.05,6.53,29.3,29.3,0,0,1-5.58,14.35c-5.49,7.66-8,16.17-6.26,25.67a3.24,3.24,0,0,1-.4,2.16c-2.75,4.08-5.6,8.11-8.48,12.24l-5.76-4.3c-2.45,2.2-5,4.16-7.13,6.46A23.38,23.38,0,0,1,247.5,155a145.94,145.94,0,0,0-16.11,3.27,11,11,0,0,0-5.1,2.88c-5,5.16-9.72,10.5-14.43,15.88a14.83,14.83,0,0,0-2.66,4.5c-11.68,31.74-27.26,61.05-52.22,84.58-2.56,2.4-5.67,4.47-4.83,8.87.15.77-1,1.92-1.79,2.72C138,290.82,127.74,305.32,122.74,323a13.09,13.09,0,0,0-.75,3.72c.19,8.89,1.33,17.59,6,25.42,2.58,4.37,5.38,8.6,8.24,13.15-6.64,4.39-10.68,10.45-11,18.57-.16,3.69.16,7.43-.19,11.1-.55,5.66.8,10,6.75,11.84.12,0,.12.43.19.69-1.44,1.43-3,2.79-4.28,4.35-.75.91-1.64,2.18-1.57,3.23a121.11,121.11,0,0,0,1.68,15.48c.47,2.37.46,3.57-1.61,5C118.54,440.69,111.11,446.07,103,451.83Z" transform="translate(-2.56 -4.44)" style="fill:#4cef19"/><path d="M103,451.83c8.14-5.76,15.57-11.14,23.15-16.3,2.07-1.42,2.08-2.62,1.61-5a121.11,121.11,0,0,1-1.68-15.48c-.07-1.05.82-2.32,1.57-3.23,1.3-1.56,2.84-2.92,4.28-4.35-.07-.26-.07-.65-.19-.69-6-1.85-7.3-6.18-6.75-11.84.35-3.67,0-7.41.19-11.1.36-8.12,4.4-14.18,11-18.57-2.86-4.55-5.66-8.78-8.24-13.15-4.63-7.83-5.77-16.53-6-25.42a13.09,13.09,0,0,1,.75-3.72c5-17.67,15.21-32.17,27.62-45.32.75-.8,1.94-1.95,1.79-2.72-.84-4.4,2.27-6.47,4.83-8.87,25-23.53,40.54-52.84,52.22-84.58a14.83,14.83,0,0,1,2.66-4.5c4.71-5.38,9.47-10.72,14.43-15.88a11,11,0,0,1,5.1-2.88A145.94,145.94,0,0,1,247.5,155,23.38,23.38,0,0,0,262,147.43c2.16-2.3,4.68-4.26,7.13-6.46l5.76,4.3c2.88-4.13,5.73-8.16,8.48-12.24a3.24,3.24,0,0,0,.4-2.16c-1.75-9.5.77-18,6.26-25.67a29.3,29.3,0,0,0,5.58-14.35,21.3,21.3,0,0,1,2.05-6.53c1.78-3.88,4.51-6.47,9.09-7.21,16.52-2.67,32.61-.73,48.37,4.29,9,2.88,12,8.55,10,17.77-.83,3.86-2.12,7.61-3,11.45a9.21,9.21,0,0,0-.1,4c1.45,6.47,3,12.9,4.7,19.82-3.18,0-6.16.41-9-.08-6.34-1.09-9.92,3.28-13.75,6.78-1.3,1.2-1.22,4-1.61,6.09-.65,3.49-1.17,7-1.81,11-7.55-2-9.19,4.45-12.25,8.57-2.06,2.77-3.85,3.47-6.95,2.1-2.77-1.23-5.76-2-8.61-2.93a3.26,3.26,0,0,0-.27.52c-2.11,6.88-1.28,12.73,5.7,16.49a21.74,21.74,0,0,1,2,1.73c3.8,2.71,6.93,5.3,3.35,10.68-1.05,1.59,0,4.69.33,7.07q3,24.12,6,48.24c.06.48.21,1,.37,1.65h9c.33.47.62.69.59.86-1.1,5.72,2,8.51,6.61,11.24,12,7.2,23.76,14.94,35.77,22.58l5.13-4.11c2.65-2.13,5.28-2.15,7.92,0,2.95,2.43,5.91,4.84,9.19,7.53,6.19-6.84,12.26-13.52,18.3-20.23,7.35-8.16,14.65-16.37,22.07-24.47a10.43,10.43,0,0,1,4-2.62c16.72-6,33.91-6.63,50.21,0,18,7.29,31.36,19.67,33.38,40.66.59,6.09,1.16,12.2,1.39,18.31a8.88,8.88,0,0,1-1.74,5.24q-73.33,98-147,195.74c-6.29,8.29-14.9,15-23.14,21.58-11.21,9-24.64,9.9-38.28,7.9a81.16,81.16,0,0,1-16.5-4.25Q207,491,106.89,453.38C105.84,453,104.81,452.56,103,451.83Zm52.15-168.29c-3.38,5.71-6,10.87-9.28,15.54-6.7,9.47-7.88,20.09-6.71,31.07,1.23,11.54,8,20.3,17,26.66S175.22,368.06,185,373.4a14.34,14.34,0,0,0,6.46,1.71c13.16.15,26.32.08,39.49.08H234l0,.69L206,391.59c1.82.75,3.09,1.32,4.39,1.79,12.35,4.47,24.67,9,37.09,13.3a27.51,27.51,0,0,0,8.91,1.18c3.17,0,6.33-.77,9.5-1.12,5.27-.6,10.55-1.14,15.83-1.71l.1.62-28.3,11.74,10.21,10c-2.63-.35-5.48-1.46-7.86-.82-2.11.56-3.7,3.07-5.62,4.82-1.35-.95-3-2-4.47-3.16a126.77,126.77,0,0,0-41.2-22.05c-13.08-4.22-25.81-9.5-39-14.43-2.78,7.52-4.59,14.81-2.46,22.59a7.39,7.39,0,0,0,5.39,5.67c29.13,9.41,58.19,19,87.27,28.54,1.65.54,3.33,1,5,1.43l44.88-61L257.4,347.59,247,356.65c-.77-5.24-1.44-9.82-2.15-14.64H219.5l-.14-.6,20.94-9.36c-4-1.87-7.32-3.19-10.41-4.9a28.08,28.08,0,0,0-15.36-3.53c-15.38.68-30.16-2.62-44.75-7.16a6.22,6.22,0,0,1-4.6-4.42C162,302.77,158.68,293.57,155.12,283.54ZM367,445.67,517.6,268.17c-8.25-8.11-15.74-16.6-26.78-20.36-12.32-4.2-24.72-2.4-37,.29a5.75,5.75,0,0,0-2.64,2.05q-16.95,20-33.82,40.15a28.71,28.71,0,0,0-1.72,2.58c10.21.81,19.86,1.7,29.54,2.29,2.45.14,3.56,1.11,4.47,3.2,2.15,4.9,4.34,9.81,6.86,14.52,1.57,2.93,1,4.75-1.51,6.67a71.89,71.89,0,0,0-7.74,6.86c-1.72,1.76-3.32,2-5.35.8a24.28,24.28,0,0,0-21.17-2c-3.82,1.34-7.94,1.86-11.93,2.7-7,1.47-14,4.36-21-.09a2.12,2.12,0,0,0-2,.36c-5.24,6-10.4,12.09-16,18.67,7.47,1.59,14.14,3.24,20.89,4.34a12,12,0,0,1,8.38,5.15c4.72,6.43,9.73,12.65,14.68,19-3.81,3.3-7.55,6.06-10.69,9.38-3.41,3.61-6.8,4.68-11.32,2.3-6-3.18-11.89-2.68-18.18.17-8.43,3.83-17.12,7.07-26.75,7.09-4.84,0-9.07-.24-12.27-4.27-.11-.13-.46-.07-.91-.12l-28.48,33.81C330.28,418,351.48,423.12,367,445.67ZM340.36,333.36c-1.14-1-2-1.74-2.86-2.51-13.4-12.23-26.77-24.49-40.23-36.65-1.9-1.71-2.67-3.22-2-5.89,1-4.3,1.41-8.74,2.09-13.27L284,271c1.42-5.11,2.87-10,4.09-14.9a5.49,5.49,0,0,0-.36-3.89c-8.39-12.85-11.2-27.39-11.94-42.25-.42-8.55-2.85-15.3-9.41-20.92-4.48-3.85-8.21-8.57-12.73-13.39l15.25-1c-11.47-8.22-24-9.69-36.66-11.57v21.72l4.53-5c-1.5,11.64-2.87,22.26-4.33,33.65l17.34-11.92c-.42,1.77-.6,2.75-.87,3.69-2.13,7.22-4.38,14.4-6.34,21.66a13.89,13.89,0,0,0-.25,6.31q7.69,36.1,15.72,72.14a10.63,10.63,0,0,0,2.92,5.09c8.62,8.17,17.4,16.19,26.14,24.23,8,7.34,16,14.66,24,22.07ZM362.9,466.14a12,12,0,0,0-.14-2.09c-3.82-18.64-20.89-32.71-40-33a42,42,0,0,0-42.49,38.2c-2.07,21.32,13,40.85,34.79,44.38,5.51.9,11.94,1.41,16.9-.55,16.71-6.6,32.22-30.78,18.42-52.88-9.52-15.24-29.89-19.47-42.73-8.46-6.66,5.7-10.35,13-8.63,22.09,1.54,8.13,6.64,13.34,14.49,15.77,10,3.09,20.71-4.92,20.44-15.15a12.74,12.74,0,0,0-10.32-11.76c-4.23-.72-8.93,2.13-10.65,6.45s1.31,9.87,5.89,10a7.66,7.66,0,0,0,5.48-3c.76-1.09-.33-3.52-.7-5.34-.27-1.35-.71-2.67-1.29-4.78,5.54,2.92,7.17,5.41,6.64,9.1a9.54,9.54,0,0,1-7.31,8,10.3,10.3,0,0,1-9.84-2.89,12.35,12.35,0,0,1-2-14.82,14.63,14.63,0,0,1,15.64-7.1c12,2.81,17.54,16.76,10.81,27.39-7.64,12.07-24.07,13.93-35,4-12.7-11.59-11.85-31.89,1.8-43.2,15.47-12.81,37.87-10.36,51.16,5.94C357.74,456.59,360.17,461.7,362.9,466.14Zm-156.31-181,.82-.26c-2.32-18.89-4.64-37.77-7-57a10.93,10.93,0,0,0-1.32,1.06C186.57,244.24,174,259.56,161.61,275a5.56,5.56,0,0,0-1.08,4.19c2.94,11.94,7.92,22.79,19.14,29.16,10,5.65,21.08,6,33,6.08-1.22-1.11-1.8-1.71-2.45-2.22-6.54-5.12-13.15-10.15-19.57-15.41a7.91,7.91,0,0,1-2.67-4.57c-.94-7.34-1.51-14.73-2.21-22.1-.23-2.4-.44-4.81-.74-8.14ZM310.11,253.8l1.13.28v17.48l11.42-10.71,1.17.41v24.85l14.4-13.27,32.92,22.94,7.33-5.81c-12-8.14-23.43-16-35-23.7-3.5-2.33-6.76-4.5-6.28-9.37,0-.16-.31-.36-.86-.94h-9.06c-3.07-16.3-6.08-32.22-9.2-48.73a15.94,15.94,0,0,0-1.31,1.52q-11.61,21.33-23.17,42.67a4,4,0,0,0-.66,2.45c.8,3.76,1.8,7.48,2.83,11.63ZM297,164.26l1-.49V142.15c2,3.58,3.95,6.08,4.94,8.92,2.87,8.2,8.71,12.37,17,13.61.37,0,.78.37,1.09.28,1.21-.33,2.64-.48,3.5-1.25a26.73,26.73,0,0,0,3.22-4.25l-10-6.15.31-.53,10.81,1.3v-3l8.37,1.33c1.2-5.37,2.56-10.4,3.41-15.52.61-3.67-1.9-5.46-5.59-4.42-2.82.79-5.66,1.52-8.44,2.43-2.15.71-3.45.34-4.6-1.82-2.68-5-5.67-9.9-9.38-16.3l-8,10.76c-1-4.64-1.26-8-2.57-10.77-.71-1.54-3.1-2.69-4.95-3.19a4.75,4.75,0,0,0-4.16,1.41c-5.45,8-4.53,13.79,2.82,19.83a8.38,8.38,0,0,1,.91,1.25c-2.48-.31-4.48-.66-6.48-.76a3.71,3.71,0,0,0-2.67.65c-3.35,4-6.53,8.06-9.85,12.22ZM160.49,382.11c-4.07-3.51-7.75-6.86-11.66-9.91a4.28,4.28,0,0,0-3.71-.11c-5.46,2.66-9.55,6.52-9.39,13.18.1,4.19.53,8.37.79,12.56.14,2.37,1.07,5.12.2,7.05-3.45,7.72-1.47,14.27,3.16,20.62,1.5,2.06,2.63,4.38,4,6.53a25,25,0,0,0,14.68,11c12.65,3.49,17.82.82,20.76-10.68a3.18,3.18,0,0,0-.09-.89c-9.51-2.18-18.75-5-23.72-14.61l-7.41,3c1.67-2.75,2.88-4.52,3.84-6.42.83-1.65,2.13-3.54,1.91-5.15C152.59,398.79,154.78,390.27,160.49,382.11Zm246.86-7.18c-4.62-6.05-9-11.86-13.48-17.51a5.73,5.73,0,0,0-3.61-1.49c-4.43-.47-9-.25-13.31-1.14-8.24-1.67-15,0-21.07,6.14-3.94,4-8.75,7.16-13.44,10.91,3.13,2.5,5.76,4.69,8.5,6.74a4,4,0,0,0,2.45.63c3.44-.15,6.89-.27,10.3-.7,10.71-1.34,21.29-1.83,31.2,3.66a3.94,3.94,0,0,0,1.78.63,4.68,4.68,0,0,0,2.73-.5C402.09,380,404.62,377.49,407.35,374.93Zm-20.43-55.34c5.93,1.22,10.89,3.38,15.63,3,7.82-.68,15.54-2.83,23.21-4.73a13.33,13.33,0,0,1,11.14,1.6c7.88,4.87,8.06,4.71,15-1.38a4,4,0,0,0,.77-3.65,135.7,135.7,0,0,0-6.08-12.34,4.68,4.68,0,0,0-3.14-2c-9.53-.94-19.16-1.15-28.59-2.65-6.19-1-9.91.93-13.48,5.64C397.28,308.46,392.43,313.36,386.92,319.59Zm-14.61,6.56c-18.62-15.69-40.88-24.95-61-38l-5.12,6.06,45,39,3.56-2.11,6.74,7.1Zm-41.3,46,29.15-21.36-14-12.44-25.09,20.82ZM269.2,145.46l-9.89,8.37,22.77,25.44L297,168.6Zm120,140.36L370.89,305c7.26,1.13,13.75,2.18,20.26,3.12a2.62,2.62,0,0,0,2-.72c3.22-3.54,6.36-7.17,9.68-11Z" transform="translate(-2.56 -4.44)" style="fill:#010200"/><path d="M155.12,283.54c3.56,10,6.92,19.23,10.06,28.5a6.22,6.22,0,0,0,4.6,4.42c14.59,4.54,29.37,7.84,44.75,7.16a28.08,28.08,0,0,1,15.36,3.53c3.09,1.71,6.4,3,10.41,4.9l-20.94,9.36.14.6h25.37c.71,4.82,1.38,9.4,2.15,14.64l10.38-9.06L305.58,389,260.7,450c-1.64-.47-3.32-.89-5-1.43C226.65,439,197.59,429.41,168.46,420a7.39,7.39,0,0,1-5.39-5.67c-2.13-7.78-.32-15.07,2.46-22.59,13.21,4.93,25.94,10.21,39,14.43a126.77,126.77,0,0,1,41.2,22.05c1.48,1.19,3.12,2.21,4.47,3.16,1.92-1.75,3.51-4.26,5.62-4.82,2.38-.64,5.23.47,7.86.82l-10.21-10,28.3-11.74-.1-.62c-5.28.57-10.56,1.11-15.83,1.71-3.17.35-6.33,1.1-9.5,1.12a27.51,27.51,0,0,1-8.91-1.18c-12.42-4.27-24.74-8.83-37.09-13.3-1.3-.47-2.57-1-4.39-1.79l28.1-15.71,0-.69H230.9c-13.17,0-26.33.07-39.49-.08A14.34,14.34,0,0,1,185,373.4c-9.73-5.34-19.84-10.2-28.85-16.59s-15.74-15.12-17-26.66c-1.17-11,0-21.6,6.71-31.07C149.14,294.41,151.74,289.25,155.12,283.54Z" transform="translate(-2.56 -4.44)" style="fill:#4bee19"/><path d="M367,445.67c-15.53-22.55-36.73-27.72-61.95-22l28.48-33.81c.45.05.8,0,.91.12,3.2,4,7.43,4.28,12.27,4.27,9.63,0,18.32-3.26,26.75-7.09,6.29-2.85,12.14-3.35,18.18-.17,4.52,2.38,7.91,1.31,11.32-2.3,3.14-3.32,6.88-6.08,10.69-9.38-5-6.37-10-12.59-14.68-19a12,12,0,0,0-8.38-5.15c-6.75-1.1-13.42-2.75-20.89-4.34,5.62-6.58,10.78-12.66,16-18.67a2.12,2.12,0,0,1,2-.36c7,4.45,14,1.56,21,.09,4-.84,8.11-1.36,11.93-2.7a24.28,24.28,0,0,1,21.17,2c2,1.18,3.63,1,5.35-.8a71.89,71.89,0,0,1,7.74-6.86c2.53-1.92,3.08-3.74,1.51-6.67-2.52-4.71-4.71-9.62-6.86-14.52-.91-2.09-2-3.06-4.47-3.2-9.68-.59-19.33-1.48-29.54-2.29a28.71,28.71,0,0,1,1.72-2.58q16.88-20.1,33.82-40.15a5.75,5.75,0,0,1,2.64-2.05c12.31-2.69,24.71-4.49,37-.29,11,3.76,18.53,12.25,26.78,20.36Z" transform="translate(-2.56 -4.44)" style="fill:#4bed19"/><path d="M340.36,333.36l-29.22,23.37c-8.07-7.41-16.06-14.73-24-22.07-8.74-8-17.52-16.06-26.14-24.23a10.63,10.63,0,0,1-2.92-5.09q-8-36-15.72-72.14a13.89,13.89,0,0,1,.25-6.31c2-7.26,4.21-14.44,6.34-21.66.27-.94.45-1.92.87-3.69l-17.34,11.92c1.46-11.39,2.83-22,4.33-33.65l-4.53,5V163.13c12.63,1.88,25.19,3.35,36.66,11.57l-15.25,1c4.52,4.82,8.25,9.54,12.73,13.39,6.56,5.62,9,12.37,9.41,20.92.74,14.86,3.55,29.4,11.94,42.25a5.49,5.49,0,0,1,.36,3.89c-1.22,4.93-2.67,9.79-4.09,14.9l13.3,4c-.68,4.53-1.08,9-2.09,13.27-.62,2.67.15,4.18,2,5.89,13.46,12.16,26.83,24.42,40.23,36.65C338.35,331.62,339.22,332.36,340.36,333.36Z" transform="translate(-2.56 -4.44)" style="fill:#4bed19"/><path d="M362.9,466.14c-2.73-4.44-5.16-9.55-8.63-13.81-13.29-16.3-35.69-18.75-51.16-5.94-13.65,11.31-14.5,31.61-1.8,43.2,10.93,10,27.36,8.11,35-4,6.73-10.63,1.23-24.58-10.81-27.39a14.63,14.63,0,0,0-15.64,7.1,12.35,12.35,0,0,0,2,14.82,10.3,10.3,0,0,0,9.84,2.89,9.54,9.54,0,0,0,7.31-8c.53-3.69-1.1-6.18-6.64-9.1.58,2.11,1,3.43,1.29,4.78.37,1.82,1.46,4.25.7,5.34a7.66,7.66,0,0,1-5.48,3c-4.58-.08-7.6-5.66-5.89-10s6.42-7.17,10.65-6.45A12.74,12.74,0,0,1,334,474.46c.27,10.23-10.46,18.24-20.44,15.15-7.85-2.43-12.95-7.64-14.49-15.77-1.72-9,2-16.39,8.63-22.09,12.84-11,33.21-6.78,42.73,8.46,13.8,22.1-1.71,46.28-18.42,52.88-5,2-11.39,1.45-16.9.55-21.83-3.53-36.86-23.06-34.79-44.38a42,42,0,0,1,42.49-38.2c19.1.28,36.17,14.35,40,33A12,12,0,0,1,362.9,466.14Z" transform="translate(-2.56 -4.44)" style="fill:#4aeb18"/><path d="M206.59,285.14,185,262c.3,3.33.51,5.74.74,8.14.7,7.37,1.27,14.76,2.21,22.1a7.91,7.91,0,0,0,2.67,4.57c6.42,5.26,13,10.29,19.57,15.41.65.51,1.23,1.11,2.45,2.22-11.93-.1-23.06-.43-33-6.08-11.22-6.37-16.2-17.22-19.14-29.16a5.56,5.56,0,0,1,1.08-4.19c12.42-15.42,25-30.74,37.48-46.08a10.93,10.93,0,0,1,1.32-1.06c2.36,19.27,4.68,38.15,7,57Z" transform="translate(-2.56 -4.44)" style="fill:#4bec19"/><path d="M310.11,253.8l-14.35,11.7c-1-4.15-2-7.87-2.83-11.63a4,4,0,0,1,.66-2.45q11.55-21.36,23.17-42.67a15.94,15.94,0,0,1,1.31-1.52c3.12,16.51,6.13,32.43,9.2,48.73h9.06c.55.58.88.78.86.94-.48,4.87,2.78,7,6.28,9.37,11.58,7.68,23,15.56,35,23.7l-7.33,5.81-32.92-22.94-14.4,13.27V261.26l-1.17-.41-11.42,10.71V254.08Z" transform="translate(-2.56 -4.44)" style="fill:#4aea18"/><path d="M297,164.26l-19.34-16.08c3.32-4.16,6.5-8.26,9.85-12.22a3.71,3.71,0,0,1,2.67-.65c2,.1,4,.45,6.48.76a8.38,8.38,0,0,0-.91-1.25c-7.35-6-8.27-11.79-2.82-19.83a4.75,4.75,0,0,1,4.16-1.41c1.85.5,4.24,1.65,4.95,3.19,1.31,2.82,1.55,6.13,2.57,10.77l8-10.76c3.71,6.4,6.7,11.27,9.38,16.3,1.15,2.16,2.45,2.53,4.6,1.82,2.78-.91,5.62-1.64,8.44-2.43,3.69-1,6.2.75,5.59,4.42-.85,5.12-2.21,10.15-3.41,15.52l-8.37-1.33v3L318,152.78l-.31.53,10,6.15a26.73,26.73,0,0,1-3.22,4.25c-.86.77-2.29.92-3.5,1.25-.31.09-.72-.23-1.09-.28-8.31-1.24-14.15-5.41-17-13.61-1-2.84-2.92-5.34-4.94-8.92v21.62Z" transform="translate(-2.56 -4.44)" style="fill:#4bec19"/><path d="M160.49,382.11c-5.71,8.16-7.9,16.68-6.63,26.16.22,1.61-1.08,3.5-1.91,5.15-1,1.9-2.17,3.67-3.84,6.42l7.41-3c5,9.64,14.21,12.43,23.72,14.61a3.18,3.18,0,0,1,.09.89c-2.94,11.5-8.11,14.17-20.76,10.68a25,25,0,0,1-14.68-11c-1.38-2.15-2.51-4.47-4-6.53-4.63-6.35-6.61-12.9-3.16-20.62.87-1.93-.06-4.68-.2-7.05-.26-4.19-.69-8.37-.79-12.56-.16-6.66,3.93-10.52,9.39-13.18a4.28,4.28,0,0,1,3.71.11C152.74,375.25,156.42,378.6,160.49,382.11Z" transform="translate(-2.56 -4.44)" style="fill:#4bec19"/><path d="M407.35,374.93c-2.73,2.56-5.26,5.06-8,7.37a4.68,4.68,0,0,1-2.73.5,3.94,3.94,0,0,1-1.78-.63c-9.91-5.49-20.49-5-31.2-3.66-3.41.43-6.86.55-10.3.7a4,4,0,0,1-2.45-.63c-2.74-2.05-5.37-4.24-8.5-6.74,4.69-3.75,9.5-6.9,13.44-10.91,6-6.13,12.83-7.81,21.07-6.14,4.33.89,8.88.67,13.31,1.14a5.73,5.73,0,0,1,3.61,1.49C398.4,363.07,402.73,368.88,407.35,374.93Z" transform="translate(-2.56 -4.44)" style="fill:#4bec19"/><path d="M386.92,319.59c5.51-6.23,10.36-11.13,14.5-16.57,3.57-4.71,7.29-6.63,13.48-5.64,9.43,1.5,19.06,1.71,28.59,2.65a4.68,4.68,0,0,1,3.14,2,135.7,135.7,0,0,1,6.08,12.34,4,4,0,0,1-.77,3.65c-7,6.09-7.16,6.25-15,1.38a13.33,13.33,0,0,0-11.14-1.6c-7.67,1.9-15.39,4.05-23.21,4.73C397.81,323,392.85,320.81,386.92,319.59Z" transform="translate(-2.56 -4.44)" style="fill:#4bec19"/><path d="M372.31,326.15l-10.81,12-6.74-7.1-3.56,2.11-45-39,5.12-6.06C331.43,301.2,353.69,310.46,372.31,326.15Z" transform="translate(-2.56 -4.44)" style="fill:#4bec19"/><path d="M331,372.15l-9.9-13,25.09-20.82,14,12.44Z" transform="translate(-2.56 -4.44)" style="fill:#4bec19"/><path d="M269.2,145.46,297,168.6l-14.93,10.67-22.77-25.44Z" transform="translate(-2.56 -4.44)" style="fill:#4aeb18"/><path d="M389.2,285.82l13.62,10.57c-3.32,3.79-6.46,7.42-9.68,11a2.62,2.62,0,0,1-2,.72c-6.51-.94-13-2-20.26-3.12Z" transform="translate(-2.56 -4.44)" style="fill:#4aea18"/><path d="M310.73,17.44A294.6,294.6,0,0,1,425.37,583.33,294.59,294.59,0,0,1,196.1,40.58,292.72,292.72,0,0,1,310.73,17.44m0-13C140.9,4.44,3.22,142.12,3.22,312S140.9,619.47,310.73,619.47,618.25,481.79,618.25,312,480.57,4.44,310.73,4.44Z" transform="translate(-2.56 -4.44)"/><path d="M310.07,17.76A294.59,294.59,0,0,1,424.71,583.65,294.59,294.59,0,0,1,195.44,40.9,292.72,292.72,0,0,1,310.07,17.76m0-13C140.24,4.76,2.56,142.44,2.56,312.28S140.24,619.79,310.07,619.79,617.59,482.11,617.59,312.28,479.91,4.76,310.07,4.76Z" transform="translate(-2.56 -4.44)"/></g></svg>